<svg width="16" height="11" viewBox="0 0 16 11" fill="none" xmlns="http://www.w3.org/2000/svg">
<path d="M0.810741 0.860047C0.84785 0.804383 0.894237 0.767274 0.949901 0.748719C1.00557 0.730164 1.06587 0.720887 1.13081 0.720887C1.57612 0.720887 2.02607 0.720887 2.48066 0.720887C2.92598 0.720887 3.37129 0.720887 3.8166 0.720887C4.26191 0.720887 4.71186 0.720887 5.16645 0.720887C5.61177 0.720887 6.05708 0.720887 6.50239 0.720887C6.63227 0.720887 6.71577 0.74408 6.75288 0.790467C6.79927 0.827576 6.82246 0.911073 6.82246 1.04096C6.82246 1.45844 6.82246 1.88055 6.82246 2.30731C6.82246 2.72479 6.82246 3.14691 6.82246 3.57367C6.82246 3.99115 6.82246 4.40863 6.82246 4.82611C6.82246 5.25287 6.82246 5.67499 6.82246 6.09247C6.82246 6.13886 6.81318 6.18988 6.79463 6.24554C6.77607 6.30121 6.75288 6.3476 6.72505 6.3847C6.50239 6.7558 6.2751 7.12225 6.04316 7.48407C5.81123 7.85516 5.5793 8.22162 5.34736 8.58344C5.11543 8.94525 4.87886 9.31171 4.63764 9.6828C4.40571 10.0446 4.17378 10.4111 3.94184 10.7822C3.93257 10.8007 3.91865 10.8239 3.9001 10.8517C3.89082 10.8703 3.88154 10.8842 3.87226 10.8935C3.83515 10.9028 3.79341 10.9167 3.74702 10.9352C3.70991 10.9538 3.6728 10.9538 3.63569 10.9352C3.60786 10.926 3.58003 10.9074 3.5522 10.8796C3.53364 10.8425 3.51045 10.8054 3.48262 10.7682C3.47334 10.7497 3.4687 10.7311 3.4687 10.7126C3.47798 10.6848 3.48262 10.6569 3.48262 10.6291C3.48262 9.96112 3.48262 9.29315 3.48262 8.62518C3.48262 7.94794 3.48262 7.27069 3.48262 6.59345C3.48262 6.56561 3.48262 6.53778 3.48262 6.50995C3.48262 6.48212 3.48262 6.44965 3.48262 6.41254C3.44551 6.41254 3.41304 6.41254 3.3852 6.41254C3.35737 6.41254 3.33418 6.41254 3.31562 6.41254C2.94453 6.41254 2.57807 6.41254 2.21626 6.41254C1.85444 6.41254 1.49263 6.41254 1.13081 6.41254C1.05659 6.41254 0.991649 6.40326 0.935985 6.3847C0.889598 6.36615 0.84785 6.3244 0.810741 6.25946C0.810741 5.80487 0.810741 5.35492 0.810741 4.90961C0.810741 4.45502 0.810741 4.00507 0.810741 3.55975C0.810741 3.11444 0.810741 2.66449 0.810741 2.2099C0.810741 1.76459 0.810741 1.31464 0.810741 0.860047ZM1.26997 1.1662C1.26997 1.5744 1.26997 1.97797 1.26997 2.37689C1.26997 2.77582 1.26997 3.17474 1.26997 3.57367C1.26997 3.9726 1.26997 4.37152 1.26997 4.77045C1.26997 5.16937 1.26997 5.56366 1.26997 5.95331C1.2978 5.95331 1.32563 5.95331 1.35347 5.95331C1.39057 5.95331 1.42305 5.95331 1.45088 5.95331C1.81269 5.95331 2.17451 5.95331 2.53633 5.95331C2.89814 5.95331 3.25532 5.95795 3.60786 5.96722C3.73774 5.96722 3.82124 5.99042 3.85835 6.0368C3.90473 6.07391 3.92793 6.15277 3.92793 6.27338C3.92793 6.85785 3.92793 7.44232 3.92793 8.02679C3.92793 8.61127 3.92793 9.19574 3.92793 9.78021C3.92793 9.80804 3.92793 9.83588 3.92793 9.86371C3.92793 9.89154 3.92793 9.92401 3.92793 9.96112C3.94648 9.93329 3.9604 9.91473 3.96968 9.90546C3.97895 9.8869 3.98823 9.87299 3.99751 9.86371C4.38716 9.2514 4.77217 8.64374 5.15254 8.04071C5.54219 7.42841 5.93183 6.8161 6.32148 6.2038C6.34004 6.17596 6.35395 6.14349 6.36323 6.10638C6.37251 6.06928 6.37715 6.03217 6.37715 5.99506C6.37715 5.60541 6.37715 5.21576 6.37715 4.82611C6.37715 4.43646 6.37715 4.04681 6.37715 3.65717C6.37715 3.26752 6.37715 2.87787 6.37715 2.48822C6.37715 2.09857 6.37715 1.70892 6.37715 1.31928C6.37715 1.29144 6.37715 1.26825 6.37715 1.2497C6.37715 1.22186 6.37715 1.19403 6.37715 1.1662C5.95039 1.1662 5.52363 1.1662 5.09687 1.1662C4.67012 1.1662 4.24336 1.1662 3.8166 1.1662C3.38984 1.1662 2.96308 1.1662 2.53633 1.1662C2.11885 1.1662 1.69673 1.1662 1.26997 1.1662ZM15.0607 6.25946C14.7082 6.80682 14.3557 7.35883 14.0031 7.91547C13.6599 8.46283 13.312 9.01019 12.9594 9.55756C12.8295 9.77094 12.695 9.97968 12.5559 10.1838C12.426 10.3879 12.2961 10.592 12.1662 10.7961C12.1384 10.8517 12.1013 10.8981 12.0549 10.9352C12.0085 10.9631 11.9528 10.9677 11.8879 10.9492C11.8137 10.9306 11.7673 10.8981 11.7487 10.8517C11.7302 10.7961 11.7209 10.7311 11.7209 10.6569C11.7209 9.97968 11.7209 9.30707 11.7209 8.6391C11.7209 7.96185 11.7209 7.28461 11.7209 6.60736C11.7209 6.57953 11.7209 6.5517 11.7209 6.52387C11.7209 6.48676 11.7209 6.44965 11.7209 6.41254C11.6931 6.41254 11.6652 6.41254 11.6374 6.41254C11.6096 6.41254 11.5817 6.41254 11.5539 6.41254C11.1921 6.41254 10.8303 6.41254 10.4685 6.41254C10.1066 6.41254 9.74482 6.41254 9.38301 6.41254C9.24385 6.41254 9.15107 6.39398 9.10469 6.35687C9.06758 6.31049 9.04902 6.21771 9.04902 6.07855C9.04902 5.66107 9.04902 5.23895 9.04902 4.8122C9.04902 4.39471 9.04902 3.97723 9.04902 3.55975C9.04902 3.14227 9.04902 2.72015 9.04902 2.2934C9.04902 1.87592 9.04902 1.45844 9.04902 1.04096C9.04902 0.911073 9.06758 0.827576 9.10469 0.790467C9.15107 0.74408 9.23921 0.720887 9.36909 0.720887C9.8144 0.720887 10.2597 0.720887 10.705 0.720887C11.1596 0.720887 11.6096 0.720887 12.0549 0.720887C12.5002 0.720887 12.9455 0.720887 13.3908 0.720887C13.8454 0.720887 14.2954 0.720887 14.7407 0.720887C14.8056 0.720887 14.8659 0.730164 14.9216 0.748719C14.9772 0.767274 15.0236 0.804383 15.0607 0.860047C15.0607 1.31464 15.0607 1.76459 15.0607 2.2099C15.0607 2.66449 15.0607 3.11444 15.0607 3.55975C15.0607 4.00507 15.0607 4.45502 15.0607 4.90961C15.0607 5.35492 15.0607 5.80487 15.0607 6.25946ZM12.1662 9.96112C12.1848 9.93329 12.1987 9.91473 12.208 9.90546C12.2172 9.89618 12.2219 9.8869 12.2219 9.87762C12.6115 9.26532 13.0012 8.65302 13.3908 8.04071C13.7897 7.41913 14.1794 6.80219 14.5598 6.18988C14.5783 6.16205 14.5922 6.13422 14.6015 6.10638C14.6108 6.06928 14.6154 6.03217 14.6154 5.99506C14.6154 5.60541 14.6154 5.21576 14.6154 4.82611C14.6154 4.43646 14.6154 4.04681 14.6154 3.65717C14.6154 3.26752 14.6154 2.87787 14.6154 2.48822C14.6154 2.09857 14.6154 1.70892 14.6154 1.31928C14.6154 1.30072 14.6154 1.27753 14.6154 1.2497C14.6154 1.22186 14.6154 1.19867 14.6154 1.18012C14.1887 1.18012 13.7619 1.18012 13.3352 1.18012C12.9084 1.18012 12.4816 1.18012 12.0549 1.18012C11.6281 1.18012 11.2014 1.18012 10.7746 1.18012C10.3478 1.18012 9.92573 1.18012 9.50825 1.18012C9.50825 1.57904 9.50825 1.97797 9.50825 2.37689C9.50825 2.77582 9.50825 3.17474 9.50825 3.57367C9.50825 3.9726 9.50825 4.37152 9.50825 4.77045C9.50825 5.1601 9.50825 5.55438 9.50825 5.95331C9.53608 5.95331 9.56391 5.95331 9.59175 5.95331C9.61958 5.95331 9.64741 5.95331 9.67524 5.95331C10.0185 5.95331 10.3618 5.95331 10.705 5.95331C11.0483 5.95331 11.3916 5.95331 11.7348 5.95331C11.9389 5.95331 12.0595 5.9765 12.0966 6.02289C12.143 6.06928 12.1662 6.18988 12.1662 6.3847C12.1662 6.97845 12.1662 7.5722 12.1662 8.16595C12.1662 8.75043 12.1662 9.34882 12.1662 9.96112Z" fill="#FF5100"/>
</svg>
